<?xml version="1.0" standalone="no"?>
<!DOCTYPE svg PUBLIC "-//W3C//DTD SVG 20010904//EN"
 "http://www.w3.org/TR/2001/REC-SVG-20010904/DTD/svg10.dtd">
<svg version="1.0" xmlns="http://www.w3.org/2000/svg"
 width="300.000000pt" height="300.000000pt" viewBox="0 0 300.000000 300.000000"
 preserveAspectRatio="xMidYMid meet">
<metadata>
Created by potrace 1.10, written by Peter Selinger 2001-2011
</metadata>
<g transform="translate(0.000000,300.000000) scale(0.100000,-0.100000)"
fill="#000000" stroke="none">
<path d="M1370 2372 c-33 -27 -39 -108 -12 -142 18 -22 23 -23 41 -12 25 15
58 16 66 1 4 -6 19 -10 33 -9 15 1 29 1 32 0 3 -1 18 -4 35 -6 47 -5 85 37 85
96 0 25 -7 55 -15 66 -13 18 -16 18 -43 3 -23 -13 -31 -14 -38 -4 -5 7 -42 15
-86 19 -64 5 -80 3 -98 -12z m90 -27 c0 -10 -10 -15 -30 -15 -20 0 -30 -5 -30
-15 0 -9 9 -15 25 -15 14 0 25 -4 25 -10 0 -5 -11 -10 -25 -10 -20 0 -25 -5
-25 -25 0 -14 -6 -25 -13 -25 -10 0 -13 16 -11 63 2 34 3 63 4 65 0 1 18 2 40
2 29 0 40 -4 40 -15z m40 -50 c0 -51 -3 -65 -15 -65 -12 0 -15 14 -15 65 0 51
3 65 15 65 12 0 15 -14 15 -65z m42 35 c-7 -42 7 -72 31 -68 19 3 22 10 25 51
2 35 7 47 19 47 13 0 15 -9 10 -52 -9 -73 -47 -99 -89 -61 -22 19 -27 118 -5
110 6 -2 11 -14 9 -27z"/>
<path d="M1327 2040 c-15 -12 -24 -27 -20 -35 3 -8 0 -15 -6 -15 -6 0 -11 5
-11 11 0 5 -5 7 -11 4 -6 -4 -8 -9 -5 -12 3 -3 -9 -13 -26 -22 -17 -9 -36 -25
-42 -36 -6 -11 -16 -23 -23 -28 -7 -4 -18 -13 -25 -20 -8 -6 -23 -17 -33 -23
-35 -20 -32 -134 3 -134 9 0 37 -23 61 -50 24 -27 47 -47 52 -44 5 3 9 0 9 -5
0 -6 7 -11 16 -11 8 0 13 -4 9 -9 -3 -5 -1 -12 5 -16 5 -3 10 -1 10 4 0 6 5
11 11 11 6 0 9 -7 6 -15 -9 -21 40 -55 79 -55 49 0 74 29 74 85 0 25 4 45 10
45 5 0 7 -7 4 -15 -4 -8 -1 -15 5 -15 6 0 11 5 11 10 0 19 22 10 27 -11 3 -12
11 -18 19 -15 10 4 14 -3 14 -23 0 -15 8 -35 18 -44 26 -23 84 -22 112 3 13
11 27 20 31 20 4 0 10 8 13 18 3 9 16 22 28 27 13 6 28 21 35 35 7 14 13 21
13 17 0 -4 13 6 30 23 16 16 36 30 44 30 18 0 26 22 26 70 0 49 -8 70 -27 70
-8 0 -38 25 -67 55 -28 30 -54 55 -58 55 -3 0 -24 18 -47 40 -31 30 -49 40
-74 40 -43 0 -77 -25 -77 -56 0 -15 -6 -24 -15 -24 -8 0 -15 -7 -15 -16 0 -12
-6 -15 -24 -10 -18 4 -26 1 -29 -11 -3 -10 -5 3 -6 30 -1 33 -7 53 -21 67 -26
26 -80 26 -113 0z m107 -26 c3 -9 6 -31 6 -50 0 -34 0 -34 -45 -34 -33 0 -47
-5 -52 -16 -8 -22 15 -35 57 -32 l35 3 3 -82 3 -82 -48 -3 c-36 -2 -49 -7 -51
-20 -3 -15 4 -18 47 -18 l51 0 0 -39 c0 -64 -6 -71 -61 -71 -44 0 -49 2 -49
23 0 16 -12 29 -48 47 -30 16 -54 38 -67 62 -16 31 -26 38 -55 40 l-35 3 0 55
0 55 33 1 c28 0 37 6 55 40 15 25 39 48 70 64 35 18 47 31 47 48 0 20 5 22 49
22 35 0 51 -4 55 -16z m236 -8 c0 -17 7 -27 23 -31 37 -12 88 -56 102 -88 11
-26 19 -31 46 -31 l34 -1 0 -55 0 -55 -37 -3 c-24 -2 -38 -8 -38 -17 0 -23
-49 -73 -90 -91 -30 -13 -40 -24 -40 -41 0 -21 -4 -23 -50 -23 l-50 0 0 53 0
54 -42 -1 c-37 -1 -43 2 -46 22 -3 20 1 22 42 22 l46 0 0 79 0 80 -42 3 c-35
2 -43 7 -43 23 0 16 8 21 43 23 l42 3 0 50 0 49 50 0 c46 0 50 -2 50 -24z
m-176 -148 c4 4 14 -1 21 -12 8 -10 18 -15 24 -11 7 4 11 -8 11 -34 0 -30 -3
-39 -14 -35 -7 3 -16 -2 -20 -11 -3 -9 -11 -13 -16 -10 -6 4 -17 1 -25 -5 -13
-11 -15 -2 -15 60 0 59 2 70 13 61 8 -6 17 -7 21 -3z"/>
<path d="M787 1353 c-37 -6 -55 -38 -52 -91 5 -77 1 -76 295 -70 14 0 70 -1
125 -2 100 -1 327 -2 440 -1 33 0 104 0 158 0 95 1 135 12 159 45 3 5 17 -3
31 -17 26 -29 55 -35 75 -15 10 10 17 10 32 1 21 -14 195 -20 222 -9 9 4 23 4
30 0 22 -14 82 -12 107 3 21 14 23 20 17 65 -4 28 -15 61 -24 73 -16 21 -23
23 -87 18 -38 -2 -74 -8 -79 -13 -5 -5 -17 -5 -28 1 -21 11 -58 3 -58 -13 0
-6 -11 -3 -24 6 -41 26 -128 32 -164 10 -29 -17 -32 -17 -50 -1 -15 14 -32 15
-105 10 -48 -3 -90 -10 -93 -15 -3 -5 -12 -4 -19 2 -12 10 -67 12 -302 10 -34
0 -46 -6 -68 -31 -24 -29 -27 -30 -31 -12 -12 44 -33 47 -264 41 -14 -1 -52 1
-85 4 -33 3 -68 1 -77 -3 -10 -6 -19 -5 -23 1 -3 5 -12 9 -18 9 -7 -1 -24 -4
-40 -6z m47 -29 c25 -9 8 -25 -20 -18 -18 5 -24 2 -24 -9 0 -9 10 -17 21 -19
27 -4 44 -30 36 -52 -6 -16 -50 -22 -81 -10 -26 10 -7 24 24 17 40 -8 40 15 0
28 -31 11 -39 36 -18 57 13 13 37 15 62 6z m110 0 c9 -3 16 -12 16 -20 0 -17
-5 -17 -31 -1 -17 10 -22 9 -35 -7 -8 -11 -14 -23 -14 -26 0 -3 6 -15 14 -26
13 -16 18 -17 36 -6 26 16 46 6 29 -14 -29 -35 -99 -3 -99 44 0 46 40 73 84
56z m64 -19 c-5 -22 -2 -25 25 -25 26 0 29 3 25 25 -4 17 -1 25 8 25 10 0 14
-16 14 -60 0 -44 -4 -60 -14 -60 -9 0 -12 8 -8 25 4 22 1 25 -25 25 -27 0 -30
-3 -25 -25 3 -18 0 -25 -12 -25 -13 0 -16 11 -16 60 0 49 3 60 16 60 12 0 15
-7 12 -25z m179 17 c22 -14 32 -57 19 -83 -24 -50 -106 -27 -106 29 0 47 50
78 87 54z m73 -42 c0 -50 0 -50 33 -50 31 0 34 4 51 50 10 28 23 50 30 50 7 0
22 -27 34 -60 17 -49 19 -60 7 -60 -8 0 -15 7 -15 15 0 9 -9 15 -25 15 -16 0
-25 -6 -25 -15 0 -12 -13 -15 -60 -15 l-60 0 0 60 c0 47 3 60 15 60 11 0 15
-12 15 -50z m258 38 c15 -15 16 -58 2 -58 -7 0 -7 -7 1 -21 7 -15 14 -18 21
-11 6 6 24 8 39 5 40 -8 38 15 -2 29 -55 19 -22 79 36 64 30 -8 25 -21 -8 -21
-28 0 -34 -19 -8 -23 28 -4 44 -27 36 -51 -5 -18 -14 -20 -66 -19 -47 1 -62 6
-70 20 -13 24 -29 23 -29 -2 0 -11 -7 -20 -15 -20 -12 0 -15 13 -15 60 l0 60
33 0 c18 0 38 -5 45 -12z m162 -13 c0 -20 5 -25 25 -25 20 0 25 5 25 25 0 16
6 25 15 25 12 0 15 -13 15 -60 0 -47 -3 -60 -15 -60 -9 0 -15 9 -15 25 0 20
-5 25 -25 25 -20 0 -25 -5 -25 -25 0 -14 -6 -25 -12 -25 -9 0 -14 20 -15 60
-1 46 2 60 13 60 8 0 14 -10 14 -25z m125 -35 c0 -41 -4 -60 -12 -60 -9 0 -13
19 -13 60 0 41 4 60 13 60 8 0 12 -19 12 -60z m107 35 c14 -30 -3 -55 -38 -55
-17 0 -24 -6 -24 -20 0 -11 -6 -20 -12 -20 -9 0 -12 17 -10 60 l4 60 34 0 c27
0 37 -5 46 -25z m142 3 c14 -23 -3 -52 -33 -56 -13 -2 -21 -11 -21 -23 0 -10
-7 -19 -15 -19 -12 0 -15 13 -15 61 l0 60 36 -3 c22 -2 42 -10 48 -20z m46
-28 c0 -49 1 -50 30 -50 17 0 30 -4 30 -10 0 -5 -20 -10 -45 -10 l-44 0 2 60
c1 41 5 60 14 60 9 0 13 -16 13 -50z m102 3 c3 -40 6 -48 23 -48 17 0 20 8 23
48 2 33 7 47 18 47 19 0 19 -69 -2 -98 -20 -28 -69 -30 -84 -3 -16 30 -13 101
4 101 11 0 16 -14 18 -47z m187 33 c15 -18 -4 -32 -23 -17 -22 18 -46 2 -46
-30 0 -32 19 -45 47 -35 14 6 14 8 -3 21 -18 14 -18 14 9 15 23 0 27 -4 27
-28 0 -26 -3 -29 -39 -30 -61 -3 -89 47 -55 96 17 25 65 30 83 8z"/>
<path d="M1130 1291 c-13 -26 4 -64 27 -59 25 5 40 35 27 56 -16 25 -41 26
-54 3z"/>
<path d="M1470 1290 c0 -15 5 -20 18 -18 9 2 17 10 17 18 0 8 -8 16 -17 18
-13 2 -18 -3 -18 -18z"/>
<path d="M1850 1291 c0 -15 6 -21 21 -21 14 0 19 5 17 17 -5 26 -38 29 -38 4z"/>
<path d="M2000 1290 c0 -15 5 -20 18 -18 9 2 17 10 17 18 0 8 -8 16 -17 18
-13 2 -18 -3 -18 -18z"/>
</g>
</svg>
